<?xml version="1.0" encoding="utf-8"?><!-- Uploaded to: SVG Repo, www.svgrepo.com, Generator: SVG Repo Mixer Tools -->
<svg fill="#000000" width="800px" height="800px" viewBox="0 0 24 24" id="glass-water" data-name="Flat Line" xmlns="http://www.w3.org/2000/svg" class="icon flat-line"><path id="secondary" d="M18.45,9,17.22,20.11a1,1,0,0,1-1,.89H7.78a1,1,0,0,1-1-.89L5.55,9Z" style="fill: rgb(44, 169, 188); stroke-width: 2;"></path><path id="primary" d="M5.55,9h12.9M6,3A1,1,0,0,0,5,4.11l1.77,16a1,1,0,0,0,1,.89h8.44a1,1,0,0,0,1-.89L19,4.11A1,1,0,0,0,18,3Z" style="fill: none; stroke: rgb(0, 0, 0); stroke-linecap: round; stroke-linejoin: round; stroke-width: 2;"></path></svg>